<?xml version="1.0" encoding="UTF-8" standalone="no"?><svg xmlns="http://www.w3.org/2000/svg" xmlns:xlink="http://www.w3.org/1999/xlink" fill="#ffffff" height="78" preserveAspectRatio="xMidYMid meet" version="1" viewBox="-0.0 -0.1 80.3 78.0" width="80.3" zoomAndPan="magnify"><g data-name="48" id="change1_1"><path d="M80.263,32.5a22.576,22.576,0,0,0-.338-3.3L76.042,4.713A5.559,5.559,0,0,0,73.8,1.074L73.5.851l-.006.008A5.6,5.6,0,0,0,69.641.067a5.534,5.534,0,0,0-3.357,1.9,5.782,5.782,0,0,0-.735-.3,5.451,5.451,0,0,0-2.607-.187l-.154.024a5.537,5.537,0,0,0-3.246,1.919l-.24.3a5.56,5.56,0,0,0-1,4.154l2.906,18.247L47.283,45.338l-.049.051a5.537,5.537,0,0,0-1.105,2.1,5.411,5.411,0,0,0-.151,2.25l2.946,18.6a1.446,1.446,0,0,0,.614.976l11,7.983.091.079a1.489,1.489,0,0,0,2.067-.328l7.077-9.766a1.473,1.473,0,0,0,.264-1.13L69.282,62,79.852,35.64A9.518,9.518,0,0,0,80.263,32.5ZM61.7,5.46l.082-.114a2.641,2.641,0,0,1,1.631-.953,2.816,2.816,0,0,1,1.238.082,1.678,1.678,0,0,1,.37.171A5.782,5.782,0,0,0,65,6.46l2.709,17.054a5.478,5.478,0,0,0-2.47-.174,5.84,5.84,0,0,0-1.413.432L61.22,7.411A2.641,2.641,0,0,1,61.7,5.46ZM77.083,34.619,66.391,61.283a1.411,1.411,0,0,0-.077.871l.705,3.9-5.851,8.06-9.411-6.831L48.9,49.327a2.565,2.565,0,0,1,.612-2.052L63.987,27.312a2.62,2.62,0,0,1,1.571-1.022l.139-.022a2.6,2.6,0,0,1,1.834.367l.13.094a2.622,2.622,0,0,1,1.047,1.724,2.585,2.585,0,0,1-.464,1.949l-10,13.774a1.48,1.48,0,0,0,2.4,1.739l10-13.774a5.546,5.546,0,0,0,.993-4.16A5.648,5.648,0,0,0,71.2,26.59L67.927,6a2.57,2.57,0,0,1,.47-1.957l.076-.1A2.6,2.6,0,0,1,70.1,2.986a2.7,2.7,0,0,1,1.852.393l.114.082a2.655,2.655,0,0,1,1.053,1.716L77.018,29.7a19.022,19.022,0,0,1,.3,2.846A6.534,6.534,0,0,1,77.083,34.619ZM33.03,45.389l-.049-.051L19.057,26.122,21.963,7.875a5.56,5.56,0,0,0-1-4.154l-.239-.3a5.54,5.54,0,0,0-3.246-1.919l-.154-.024a5.45,5.45,0,0,0-2.607.187,5.665,5.665,0,0,0-.735.3,5.536,5.536,0,0,0-3.357-1.9A5.6,5.6,0,0,0,6.774.859L6.768.851l-.307.223A5.559,5.559,0,0,0,4.222,4.713L.339,29.205A22.439,22.439,0,0,0,0,32.5,9.518,9.518,0,0,0,.412,35.64L10.981,62l-.753,4.155a1.473,1.473,0,0,0,.265,1.13l7.076,9.766a1.489,1.489,0,0,0,2.067.328l.091-.079,11-7.983a1.445,1.445,0,0,0,.613-.976l2.947-18.6a5.427,5.427,0,0,0-.151-2.25A5.565,5.565,0,0,0,33.03,45.389ZM15.264,6.46a5.752,5.752,0,0,0-.02-1.814,1.664,1.664,0,0,1,.371-.171,2.811,2.811,0,0,1,1.237-.082,2.644,2.644,0,0,1,1.632.953l.082.114a2.64,2.64,0,0,1,.477,1.951L16.437,23.772a5.827,5.827,0,0,0-1.413-.432,5.475,5.475,0,0,0-2.469.174Zm16.1,42.867L28.507,67.281,19.1,74.112l-5.85-8.06.7-3.9a1.411,1.411,0,0,0-.076-.871L3.18,34.619a6.509,6.509,0,0,1-.229-2.07A18.876,18.876,0,0,1,3.245,29.7l3.9-24.526A2.651,2.651,0,0,1,8.194,3.461l.113-.082a2.705,2.705,0,0,1,1.852-.393,2.6,2.6,0,0,1,1.632.954l.076.1A2.573,2.573,0,0,1,12.336,6L9.067,26.59a5.443,5.443,0,0,0,.557,5.551l10,13.774a1.48,1.48,0,0,0,2.395-1.739l-10-13.774a2.585,2.585,0,0,1-.463-1.949A2.618,2.618,0,0,1,12.6,26.729l.129-.094a2.607,2.607,0,0,1,1.834-.367l.14.022a2.618,2.618,0,0,1,1.57,1.022L30.754,47.275a2.575,2.575,0,0,1,.612,2.052ZM55.044,23.482a9.321,9.321,0,0,0-.319-7.839A9.606,9.606,0,0,0,39.95,12.66c-.191-.152-.366-.292-.548-.426a9.59,9.59,0,0,0-10.662-.446,9.467,9.467,0,0,0-4.462,9.589,13.5,13.5,0,0,0,2.568,5.744c3.413,4.854,7.97,8.548,11.972,11.517a1.886,1.886,0,0,0,1.131.417,1.987,1.987,0,0,0,1.3-.546c.841-.718,1.693-1.427,2.545-2.136,1.9-1.58,3.86-3.213,5.684-4.939A22.836,22.836,0,0,0,55.044,23.482ZM39.94,35.861h0c-4.326-3.284-8.783-6.924-11.717-12.043-1.927-3.358-1.452-6.727,1.271-9.012a6.638,6.638,0,0,1,8.9.347c1.3,1.263,1.756,1.277,3.052.089l.074-.068a6.45,6.45,0,0,1,7.15-1.4,6.67,6.67,0,0,1,4.224,6.211,9.166,9.166,0,0,1-1.736,4.806h0C48.119,29.378,43.976,32.821,39.94,35.861Z"/></g></svg>