<?xml version="1.0" encoding="UTF-8" standalone="no"?><!-- Generator: Adobe Illustrator 23.0.3, SVG Export Plug-In . SVG Version: 6.00 Build 0)  --><svg xmlns="http://www.w3.org/2000/svg" enable-background="new 0 0 500 349.8" fill="#000000" id="Layer_1" version="1.1" viewBox="0 0 500 349.8" x="0px" xml:space="preserve" y="0px">
<g id="change1_1"><path d="m495.7 17.4l-0.5-4.2c-0.5-4.6-4.1-8.2-8.6-8.8-107.2-13.9-185.7 5.8-233.2 58.7-25 27.8-36.6 60.5-33.5 94.6 2.4 27.1 14.1 53.5 33.1 75.2l-30.8 30.8-52.6-64.6c16.2-16.2 26.2-36.9 28.1-58.2 2.2-24.2-6.1-47.4-23.7-67.1-33.8-37.6-85.9-51.2-159.4-41.6l-3 0.4c-4.5 0.6-8 4.1-8.6 8.6-9.7 74.4 4.2 128.9 41.1 162.2 17.6 15.8 38 24.1 59.5 24.1 2.5 0 5-0.1 7.5-0.3 15.1-1.3 29.8-6.7 42.9-15.4l53.9 66.2-54.9 54.7c-3.9 3.9-3.9 10.2 0 14.1 2 2 4.5 2.9 7.1 2.9s5.1-1 7.1-2.9l99.8-99.8c21.7 18.8 47.9 30.4 74.9 32.8 3.5 0.3 7.1 0.5 10.6 0.5 30.2 0 59.1-11.6 84-34 53.5-48.4 72.9-123.2 59.2-228.9zm-386.4 189.9c-18.5 1.6-36.4-4.8-51.8-18.7-30.6-27.6-42.5-73.7-35.6-137.2 64-7.5 108.8 4.2 137 35.6 13.9 15.5 20.3 33.4 18.7 52-1.4 16.1-8.8 31.7-20.9 44.4l-50-61.5c-3.5-4.3-9.8-4.9-14.1-1.4s-4.9 9.8-1.4 14.1l50.1 61.5c-9.9 6.3-20.8 10.2-32 11.2zm360.7-51.7c-9.2 30.8-24.5 55.6-46.9 75.7-23.6 21.2-51 31-79.4 28.5-22.4-2-44.2-11.5-62.5-27l122.6-122.6c3.9-3.9 3.9-10.2 0-14.1s-10.2-3.9-14.1 0l-122.7 122.6c-15.7-18.3-25.3-40.3-27.3-62.8-2.5-28.4 7.3-55.9 28.5-79.4 33.8-37.5 86-56.4 155.5-56.4 16.5 0 34.1 1.1 52.6 3.2 6.4 52.1 4.3 96.6-6.3 132.3z" fill="#ffffff"/></g>
</svg>