<?xml version="1.0" encoding="UTF-8" standalone="no"?><svg xmlns="http://www.w3.org/2000/svg" xmlns:xlink="http://www.w3.org/1999/xlink" fill="#000000" height="64" preserveAspectRatio="xMidYMid meet" version="1" viewBox="13.0 0.0 38.0 64.0" width="38" zoomAndPan="magnify"><g id="change1_1"><path d="M46,32.2c0-0.1,0-0.1,0-0.2V14c0-7.7-6.3-14-14-14S18,6.3,18,14v18c0,0.1,0,0.1,0,0.2c-3.2,3.5-5,8.1-5,12.8 v18c0,0.6,0.4,1,1,1h36c0.6,0,1-0.4,1-1V45C51,40.2,49.2,35.7,46,32.2z M44,30.3c-1.9-1.6-4.1-2.7-6.4-3.5c2.7-1.2,4.9-3.2,6.4-5.7 V30.3z M33,62h-2V31c0-0.1,0-0.2,0-0.2l1-1.3l1,1.3c0,0.1,0,0.2,0,0.2V62z M27.1,32.2l-2.9-2.3c2-1,4.2-1.7,6.4-1.8L27.1,32.2z M33.4,28.1c2.2,0.2,4.4,0.8,6.4,1.8l-2.9,2.3L33.4,28.1z M32,26c-6.3,0-11.6-4.9-12-11.1c0.2,0.1,0.3,0.1,0.5,0.1 C24,15,32.1,15,35,8.2c1.2,3.5,3.8,6.8,8.6,6.8c0.1,0,0.2,0,0.3-0.1C43.5,21.2,38.3,26,32,26z M44,13.1c-0.1,0-0.2-0.1-0.3-0.1 c-7,0-7.7-8.7-7.7-10.3C40.5,4.3,43.6,8.3,44,13.1z M32,2c0.7,0,1.3,0.1,2,0.2c0,0.1,0,0.2,0,0.2l0,0C34,13,24.9,13,20.5,13 c-0.2,0-0.3,0.1-0.5,0.1C20.5,6.9,25.7,2,32,2z M26.4,26.8c-2.3,0.7-4.5,1.9-6.4,3.5v-9.1C21.5,23.7,23.7,25.7,26.4,26.8z M15,45 c0-5.6,2.8-10.8,7.4-14l4.3,3.4c0.4,0.3,1,0.3,1.4-0.1l1-1.2V62H15V45z M49,62H35V33.1l1,1.2c0.2,0.2,0.5,0.4,0.8,0.4 c0.2,0,0.4-0.1,0.6-0.2l4.2-3.4c4.6,3.2,7.4,8.4,7.4,14V62z M36,37v4c0,0.6,0.4,1,1,1h8c0.6,0,1-0.4,1-1v-4c0-0.6-0.4-1-1-1h-8 C36.4,36,36,36.4,36,37z M38,38h6v2h-6V38z" fill="#ffffff"/></g></svg>